<svg width="26" height="24" viewBox="0 0 26 24" fill="none" xmlns="http://www.w3.org/2000/svg">
<rect x="0.925903" width="24.8889" height="24" fill="#415167"/>
<path d="M5.40336 4.66388H19.3097C19.3516 4.66388 19.3898 4.67932 19.4291 4.69091L19.7709 3.58959C19.8796 3.23936 20.2091 3 20.5825 3H22.2794C22.5137 3 22.7037 3.18625 22.7037 3.41598V4.2479C22.7037 4.47763 22.5137 4.66388 22.2794 4.66388H21.2109L18.5602 13.2046L19.5502 14.337C19.9415 14.7846 20.1177 15.4013 19.9376 15.9637C19.7073 16.683 19.0598 17.1429 18.3133 17.1429H6.15821C5.92391 17.1429 5.73395 16.9566 5.73395 16.7269V15.895C5.73395 15.6652 5.92391 15.479 6.15821 15.479H18.3134L16.9685 13.9406C16.9347 13.9019 16.9099 13.8583 16.8842 13.8151H8.66306C8.00549 13.8151 7.40711 13.4428 7.12711 12.8594L4.16667 6.69125C4.08175 6.51374 4.03701 6.31673 4.03701 6.12131V6.0035C4.03701 5.26369 4.64875 4.66388 5.40336 4.66388Z" fill="#F9FBFF"/>
<path d="M17.7037 21.0001C16.7832 21.0001 16.037 20.2805 16.037 19.3929C16.037 18.5053 16.7832 17.7858 17.7037 17.7858C18.6242 17.7858 19.3704 18.5053 19.3704 19.3929C19.3704 20.2805 18.6242 21.0001 17.7037 21.0001Z" fill="white"/>
<path d="M7.70376 21.0001C6.78328 21.0001 6.03709 20.2805 6.03709 19.3929C6.03709 18.5053 6.78328 17.7858 7.70376 17.7858C8.62423 17.7858 9.37042 18.5053 9.37042 19.3929C9.37042 20.2805 8.62423 21.0001 7.70376 21.0001Z" fill="white"/>
</svg>
