<!-- Generated by IcoMoon.io -->
<svg version="1.1" xmlns="http://www.w3.org/2000/svg" width="999" height="1024" viewBox="0 0 999 1024">
<title></title>
<g id="icomoon-ignore">
</g>
<path fill="#c7a17a" d="M274.3 418.492c0-46.941 36.015-85.007 80.429-85.007h-337.801v136.011l273.618-0.272c-10.070-14.196-16.247-31.623-16.247-50.732z"></path>
<path fill="#c7a17a" d="M628.187 316.484h353.887v170.015h-353.887v-170.015z"></path>
<path fill="#232c38" d="M703.589 123.709c-42.892-67.935-118.238-113.251-204.088-113.251s-161.212 45.317-204.088 113.251h-295.418v889.835h999.009v-889.835h-295.418zM499.501 42.815c115.498 0 209.47 94.356 209.47 210.324v32.358h257.808v258.861h-376.335c32.935-26.711 54.075-67.531 54.075-113.251v-145.61h-290.035v32.358c-53.318 0-96.678 43.536-96.678 97.073s43.359 97.074 96.678 97.074h24.525c8.17 12.231 18.16 23.12 29.551 32.357h-376.336v-258.861h257.809v-32.358c0-115.968 93.972-210.324 209.47-210.324zM322.259 576.716h354.488v64.716h-354.488v-64.716zM386.71 431.106v-113.251h225.584v113.251c0 62.451-50.596 113.251-112.792 113.251s-112.792-50.801-112.792-113.251zM354.484 479.643c-35.546 0-64.452-29.025-64.452-64.716 0-35.689 28.907-64.715 64.452-64.715v80.894c0 17.037 3.077 33.328 8.459 48.537h-8.459zM32.223 220.782h161.131v-32.358h-161.131v-32.358h245.901c-4.544 10.42-8.267 21.243-11.328 32.358h-41.217v32.358h34.626c-1.417 10.613-2.4 21.355-2.4 32.357h-225.584v-32.357zM32.223 576.716h257.809v404.47h-257.809v-404.47zM322.259 673.79h161.131v307.396h-161.131v-307.396zM515.614 673.79h161.131v307.396h-161.131v-307.396zM966.78 981.186h-257.809v-404.47h257.809v404.47zM738.796 220.782h34.626v-32.358h-41.217c-3.077-11.115-6.783-21.939-11.328-32.358h245.902v32.358h-161.132v32.358h161.132v32.357h-225.584c0-11.002-0.983-21.744-2.4-32.357z"></path>
<path fill="#232c38" d="M515.614 253.14h32.227v-28.541c0-16.147 8.943-30.659 23.316-37.873 25.378-12.75 41.136-38.344 41.136-66.819v-28.556h-32.227v28.54c0 16.147-8.943 30.659-23.316 37.875-25.378 12.749-41.136 38.343-41.136 66.817v28.557z"></path>
<path fill="#232c38" d="M451.162 224.6c0-16.147 8.944-30.659 23.316-37.873 25.379-12.75 41.136-38.344 41.136-66.819v-28.556h-32.226v28.54c0 16.147-8.944 30.659-23.316 37.875-25.379 12.749-41.136 38.343-41.136 66.817v28.557h32.226v-28.541z"></path>
<path fill="#232c38" d="M418.936 770.862h32.227v64.715h-32.227v-64.715z"></path>
<path fill="#232c38" d="M547.84 770.862h32.227v64.715h-32.227v-64.715z"></path>
</svg>
