<!-- Generated by IcoMoon.io -->
<svg version="1.1" xmlns="http://www.w3.org/2000/svg" width="1011" height="1024" viewBox="0 0 1011 1024">
<title></title>
<g id="icomoon-ignore">
</g>
<path fill="#c7a17a" d="M888.57 596.022c-18.417 38.41-57.791 65.019-103.507 65.019v-65.019h-557.105v65.019c-45.732 0-85.089-26.609-103.507-65.019h-60.348v357.601h884.815v-357.601h-60.348z"></path>
<path fill="#232c38" d="M913.165 528.233h48.92c26.971 0 48.92 21.86 48.92 48.723v389.79c0 26.861-21.948 48.721-48.92 48.721h-913.17c-26.971 0-48.92-21.86-48.92-48.721v-389.775c0-26.861 21.949-48.721 48.92-48.721h48.92v-16.241c0-52.863 33.086-100.319 81.534-120.018v-52.31c-48.446-19.701-81.534-67.155-81.534-120.018v-16.241c-53.958 0-97.84-43.704-97.84-97.444s43.881-97.444 97.84-97.444h815.331c53.958 0 97.84 43.704 97.84 97.444s-43.882 97.444-97.84 97.444v16.241c0 52.863-33.085 100.334-81.533 120.018v52.293c48.446 19.701 81.533 67.172 81.533 120.018v16.241zM799.019 640.57c46.213-7.763 81.533-47.894 81.533-96.096v-32.481c0-35.014-19.404-66.829-48.918-84.012v19.051c0 6.496-1.337 12.683-3.67 18.369 12.426 12.002 19.976 28.632 19.976 46.594v32.481c0 30.223-20.824 55.69-48.92 62.916v33.181zM260.901 203.421h-65.226v16.241c0 3.784 0.815 7.455 2.088 10.946 8.398-6.74 18.932-10.946 30.526-10.946s22.128 4.206 30.525 10.946c1.272-3.491 2.088-7.162 2.088-10.946v-16.241zM211.98 268.383v178.647c0 8.948 7.322 16.241 16.308 16.241 8.984 0 16.306-7.292 16.306-16.241v-178.647c0-8.948-7.322-16.241-16.306-16.241s-16.308 7.292-16.308 16.241zM276.636 262.715c0.061 0.546 0.136 1.089 0.209 1.631l0.001 0.004c0.18 1.331 0.361 2.661 0.361 4.033v35.291c29.516-17.183 48.92-48.998 48.92-84.012v-16.241h-32.613v16.241c0 16.012-6.261 31.213-16.878 43.054zM205.116 489.677c-5.739 5.928-9.442 13.707-9.442 22.314v16.241h65.226v-16.241c0-8.591-3.701-16.386-9.442-22.314-6.93 3.751-14.741 6.073-23.17 6.073-8.431 0-16.242-2.322-23.172-6.073zM273.538 465.398c12.426 11.986 19.976 28.632 19.976 46.594v16.241h32.613v-16.241c0-34.998-19.404-66.814-48.92-84.012v19.051c0 6.513-1.336 12.7-3.669 18.369zM277.206 339.68v52.293c48.448 19.701 81.534 67.155 81.534 120.035v16.241h293.519v-16.241c0-52.863 33.087-100.334 81.534-120.018v-52.31c-48.446-19.701-81.534-67.172-81.534-120.018v-16.241h-293.519v16.241c0 52.863-33.085 100.317-81.534 120.018zM766.405 447.029c0 8.948 7.322 16.241 16.308 16.241 8.984 0 16.306-7.292 16.306-16.241v-178.647c0-8.948-7.322-16.241-16.306-16.241s-16.308 7.292-16.308 16.241v178.647zM813.239 230.607c1.27-3.491 2.087-7.162 2.087-10.946v-16.241h-65.226v16.241c0 3.784 0.815 7.455 2.088 10.946 8.398-6.74 18.932-10.946 30.526-10.946s22.128 4.206 30.526 10.946zM734.364 262.715c-10.615-11.84-16.877-27.024-16.877-43.054v-16.241h-32.614v16.241c0 34.998 19.404 66.814 48.92 84.012v-35.291c0-1.457 0.191-2.85 0.384-4.249 0.064-0.472 0.129-0.944 0.187-1.42zM733.793 427.98c-29.516 17.183-48.92 48.998-48.92 84.012v16.241h32.614v-16.241c0-17.962 7.549-34.592 19.975-46.594-2.331-5.684-3.669-11.872-3.669-18.369v-19.051zM750.099 511.992v16.241h65.226v-16.241c0-8.591-3.701-16.386-9.44-22.314-6.931 3.751-14.742 6.073-23.172 6.073s-16.242-2.322-23.172-6.073c-5.739 5.928-9.442 13.707-9.442 22.314zM831.633 303.674c29.514-17.183 48.918-48.998 48.918-84.012v-32.481c0-48.202-35.319-88.332-81.533-96.095v33.18c28.096 7.243 48.92 32.708 48.92 62.916v32.481c0 16.029-6.261 31.213-16.878 43.070 0.060 0.531 0.133 1.062 0.205 1.593l0.001 0.009 0.001 0.005c0.18 1.331 0.365 2.667 0.365 4.044v35.291zM32.608 105.977c0 35.827 29.254 64.963 65.226 64.963h1.125c8.072-63.988 62.928-113.683 129.328-113.683h16.306v97.443h-16.306c-12.018 0-22.422 6.578-28.080 16.241h610.585c-5.657-9.663-16.061-16.241-28.079-16.241h-16.308v-97.443h16.308c66.399 0 121.255 49.697 129.328 113.683h1.125c35.973 0 65.226-29.135 65.226-64.963s-29.254-64.963-65.226-64.963h-815.331c-35.973 0-65.226 29.135-65.226 64.963zM130.448 203.421v16.241c0 35.014 19.404 66.829 48.92 84.012v-35.291c0-1.443 0.189-2.831 0.382-4.226 0.065-0.475 0.131-0.949 0.188-1.426-10.616-11.857-16.878-27.057-16.878-43.070v-32.481c0-30.223 20.824-55.69 48.92-62.916v-33.18c-46.213 7.763-81.533 47.893-81.533 96.095v16.241zM130.448 511.992v32.481c0 48.202 35.319 88.333 81.533 96.096v-33.181c-28.096-7.242-48.92-32.708-48.92-62.916v-32.481c0-17.962 7.551-34.592 19.976-46.594-2.332-5.684-3.669-11.856-3.669-18.369v-19.051c-29.516 17.183-48.92 48.998-48.92 84.012zM962.085 982.969c8.985 0 16.306-7.292 16.306-16.241v-389.773c0-8.949-7.321-16.241-16.306-16.241h-50.044c-8.073 63.988-62.928 113.683-129.328 113.683h-16.308v-97.443h16.308c12.018 0 22.422-6.578 28.079-16.241h-610.585c5.659 9.663 16.062 16.241 28.080 16.241h16.306v97.443h-16.306c-66.401 0-121.256-49.696-129.328-113.683h-50.045c-8.985 0-16.307 7.291-16.307 16.241v389.773c0 8.948 7.321 16.241 16.307 16.241h913.17z"></path>
<path fill="#232c38" d="M531.9 650.768v0.051h0.051l-0.051-0.051z"></path>
<path fill="#232c38" d="M534.609 653.626c0.601 0.66 1.201 1.319 1.823 1.966 66.092-38.393 144.461-34.674 191.392 10.784 24.899 24.15 38.613 57.8 38.613 94.748 0 47.033-21.721 95.071-59.585 131.775-39.037 37.857-88.854 57.394-135.361 57.394-36.689 0-71.325-12.164-97.040-37.077l0.065-0.082c-6.164 0.731-12.361 1.218-18.672 1.218-46.505 0-96.307-19.538-135.361-57.394-37.864-36.72-59.584-84.76-59.584-131.793 0-36.948 13.715-70.598 38.613-94.732 58.279-56.518 162.529-47.39 232.386 20.333 0.95 0.927 1.83 1.892 2.71 2.858zM509.153 674.041c-32.842-31.848-74.423-48.43-112.531-48.43-22.438 0-43.49 5.994-61.068 17.734l204.877 198.622c12.035-16.533 18.426-36.736 18.426-59.424 0-38.327-18.117-77.873-49.703-108.503zM343.217 833.703c-31.602-30.63-49.703-70.176-49.703-108.504 0-22.688 6.376-42.891 18.426-59.408l204.958 198.704c-47.37 31.734-121.484 19.813-173.681-30.791zM514.012 902.79c47.47 28.779 119.186 16.143 170.062-33.164 31.602-30.63 49.719-70.175 49.703-108.503 0-22.688-6.393-42.908-18.426-59.424l-24.769 24.020-22.765-23.271 23.889-23.159c-35.809-23.842-87.567-23.095-133.909 1.899 20.465 29.282 32.108 62.543 33.347 95.592l57.219-55.478 22.765 23.29-87.892 85.215c-6.507 17.995-16.665 34.202-30.363 47.488-11.382 11.027-24.574 19.423-38.859 25.499z"></path>
<path fill="#232c38" d="M309.82 73.496h326.132v32.481h-326.132v-32.481z"></path>
<path fill="#232c38" d="M668.567 73.496h32.614v32.481h-32.614v-32.481z"></path>
</svg>
