<!-- Generated by IcoMoon.io -->
<svg version="1.1" xmlns="http://www.w3.org/2000/svg" width="1012" height="1024" viewBox="0 0 1012 1024">
<title></title>
<g id="icomoon-ignore">
</g>
<path fill="#c7a17a" d="M25.297 624.905h521.44v331.656h-521.44v-331.656z"></path>
<path fill="#c7a17a" d="M546.739 724.401h439.965v-364.821h-488.85v99.497h48.885v265.324z"></path>
<path fill="#151d28" d="M1012.004 118.657c0 14.471-6.382 27.37-16.323 36.384v713.919c9.94 9.015 16.323 21.912 16.323 36.384v65.558c0 27.107-21.971 49.167-48.968 49.167h-473.357v-1.655c-5.273 1.082-10.741 1.655-16.323 1.655h-391.746c-45.001 0-81.614-36.761-81.614-81.946v-458.901c0-27.107 21.971-49.168 48.968-49.168h424.39v-275.013c-9.941-9.013-16.324-21.912-16.324-36.384v-65.557c0-27.107 21.971-49.168 48.968-49.168h457.034c26.997 0 48.968 22.060 48.968 49.168v65.557zM979.359 53.1c0-9.030-7.329-16.389-16.324-16.389h-65.291v98.336h65.291c8.994 0 16.324-7.359 16.324-16.389v-65.557zM603.936 36.711v98.336h65.291v-98.336h-65.291zM701.873 36.711v98.336h65.291v-98.336h-65.291zM865.099 36.711h-65.291v98.336h65.291v-98.336zM489.677 53.1v65.557c0 9.031 7.328 16.389 16.323 16.389h65.291v-98.336h-65.291c-8.994 0-16.323 7.359-16.323 16.389zM32.642 938.123c0 27.107 21.971 49.167 48.968 49.167h391.746c26.997 0 48.967-22.059 48.967-49.167v-376.954h-32.644v-32.777h32.644v-49.168c0-9.031-7.328-16.39-16.323-16.39h-457.035c-8.994 0-16.323 7.359-16.323 16.39v49.168h424.389v32.777h-424.389v376.954zM979.359 970.902v-65.558c0-9.048-7.329-16.39-16.324-16.39h-408.066v49.168c0 18.519-6.382 35.433-16.747 49.167h424.814c8.994 0 16.324-7.342 16.324-16.389zM554.968 856.176h408.066v-688.351h-457.034v262.229c26.997 0 48.968 22.061 48.968 49.168v376.953z"></path>
<path fill="#151d28" d="M702.329 659.292c37.705 0 79.279-17.356 112.283-50.479 56.771-57.002 67.022-139.44 22.852-183.79s-126.273-34.058-183.027 22.945c-56.755 57.001-67.005 139.44-22.852 183.773 18.478 18.569 43.598 27.551 70.743 27.551zM791.532 585.637c-38.489 38.63-90.264 51.38-123.677 32.861l156.421-157.058c18.412 33.565 5.746 85.534-32.743 124.197zM766.51 429.889c-29.005 0-62.206 14.341-89.008 41.252-38.489 38.663-51.156 90.633-32.743 124.182l156.225-156.863c-10.136-5.605-21.84-8.571-34.474-8.571z"></path>
<path fill="#151d28" d="M197.388 693.807c-56.771 57.002-67.022 139.44-22.852 183.79 18.478 18.569 43.598 27.551 70.743 27.551 37.705 0 79.279-17.356 112.283-50.479 56.771-57.001 67.022-139.44 22.852-183.79-44.153-44.382-126.257-34.075-183.027 22.928zM220.468 716.982c26.802-26.895 60.018-41.236 89.008-41.236 12.634 0 24.338 2.966 34.474 8.571l-156.225 156.861c-18.412-33.565-5.746-85.534 32.743-124.197zM210.821 864.337c33.413 18.519 85.188 5.77 123.677-32.86 38.489-38.663 51.156-90.634 32.743-124.198l-156.421 157.058z"></path>
</svg>
