<!-- Generated by IcoMoon.io -->
<svg version="1.1" xmlns="http://www.w3.org/2000/svg" width="937" height="1024" viewBox="0 0 937 1024">
<title></title>
<g id="icomoon-ignore">
</g>
<path fill="#c7a17a" d="M110.667 235.434v9.476c0 72.443 37.603 139.92 99.812 179.097h313.714c62.209-39.176 99.812-106.654 99.812-179.097v-9.476h-513.336z"></path>
<path fill="#151d28" d="M840.072 9.147h-743.145c-53.458 0-96.932 43.652-96.932 97.327s43.474 97.328 96.932 97.328v42.224c0 65.68 26.754 127.061 73.151 171.151-23.507 6.879-40.841 28.469-40.841 54.277 0 24.267 15.331 44.885 36.721 52.979-2.778 6.115-4.409 12.863-4.409 20.016v4.543l-41.714 13.95c-33.038 11.063-55.219 41.981-55.219 76.938v101.123c0 34.957 22.198 65.892 55.235 76.954l45.639 15.248c5.315 19.985 15.848 37.827 30.162 51.876h-131.035c-35.639 0-64.621 29.101-64.621 64.886 0 35.783 28.982 64.885 64.621 64.885h807.768v-816.725c37.593-13.398 64.621-49.361 64.621-91.651 0-53.676-43.474-97.327-96.933-97.327zM484.655 57.811c0 8.938-7.253 16.221-16.155 16.221h-161.554c-8.902 0-16.155-7.283-16.155-16.221s7.253-16.221 16.155-16.221h161.554c8.902 0 16.155 7.283 16.155 16.221zM32.306 106.474c0-35.784 28.982-64.885 64.621-64.885h164.525c-1.809 5.093-2.973 10.511-2.973 16.221 0 26.83 21.746 48.664 48.466 48.664h161.554c26.721 0 48.466-21.834 48.466-48.664 0-5.71-1.163-11.128-2.973-16.221h164.525c35.638 0 64.621 29.101 64.621 64.885s-28.983 64.885-64.621 64.885h-581.593c-35.639 0-64.621-29.101-64.621-64.885zM678.52 430.9v-64.885h64.621v64.885h-64.621zM678.52 560.67h64.621v64.886h-64.621v-64.886zM678.52 528.228v-64.886h64.621v64.886h-64.621zM646.208 333.573v324.427h96.933v227.097h-195.657c21.002-20.634 34.105-49.345 34.105-81.106v-259.542c0-7.153-1.632-13.901-4.41-20.016 21.39-8.111 36.721-28.712 36.721-52.979 0-25.792-17.334-47.382-40.84-54.277 46.398-44.106 73.15-105.487 73.15-171.151v-42.224h96.933v129.77h-96.933zM613.897 246.027c0 68.113-33.506 130.743-89.613 168.652h-233.493v-48.663c0-44.722-36.236-81.107-80.778-81.107h-76.689c-2.44-12.701-4.088-25.63-4.088-38.882v-42.224h484.661v42.224zM142.195 317.351h67.82c26.721 0 48.466 21.834 48.466 48.665v48.663h-39.629c-35.655-24.105-62.102-58.153-76.657-97.327zM557.354 447.121c13.361 0 24.233 10.916 24.233 24.332 0 13.414-10.872 24.332-24.233 24.332h-371.573c-13.361 0-24.233-10.917-24.233-24.332s10.872-24.332 24.233-24.332h371.573zM96.927 741.003v-101.123c0-20.975 13.312-39.532 33.134-46.183l31.488-10.527v214.56l-31.488-10.528c-19.823-6.667-33.134-25.224-33.134-46.198zM193.858 544.448c0-8.953 7.254-16.22 16.155-16.22h323.108c8.902 0 16.155 7.267 16.155 16.22v259.542c0 44.721-36.236 81.106-80.776 81.106h-193.865c-44.54 0-80.776-36.385-80.776-81.106v-259.542zM840.072 982.424h-775.457c-17.819 0-32.311-14.55-32.311-32.441 0-17.893 14.492-32.442 32.311-32.442h710.835v-713.737h64.621v778.621zM750.571 171.359c15.412-17.243 24.88-39.937 24.88-64.885s-9.467-47.642-24.88-64.885h89.501c35.64 0 64.621 29.101 64.621 64.885s-28.982 64.885-64.621 64.885h-89.501z"></path>
<path fill="#333" d="M484.655 560.67h32.311v32.442h-32.311v-32.442z"></path>
<path fill="#333" d="M226.17 560.67h226.175v32.442h-226.175v-32.442z"></path>
</svg>
