<!-- Generated by IcoMoon.io -->
<svg version="1.1" xmlns="http://www.w3.org/2000/svg" width="1024" height="1024" viewBox="0 0 1024 1024">
<title></title>
<g id="icomoon-ignore">
</g>
<path fill="#415167" d="M354.276 713.429c-88.586-150.805-88.795-307.583-79.79-380.531-207.535 98.759-331.722 310.785-248.162 500.836 98.428 9.811 236.437-20.047 327.954-120.305z"></path>
<path fill="#415167" d="M377.102 749.908c-80.835 85.75-219.682 134.169-325.648 127.768 96.753 139.714 354.129 201.147 585.958 66.34-99.263-24.105-192.876-94.494-260.309-194.108z"></path>
<path fill="#415167" d="M619.612 436.777c-138.638-153.579-150.156-300.118-131.096-396.318-143.248 82.122-213.191 292.655-157.069 507.236 62.618 245.299 285.231 430.876 494.026 337.445 6.491-68.897-2.096-223.542-205.861-448.365z"></path>
<path fill="#415167" d="M1005.363 367.026c-63.661-244.447-276.226-413.384-469.728-348.114-28.273 91.934-24.294 239.756 115.597 390.349 63.456 74.654 220.313 251.483 217.377 451.776 128.587-90.441 188.688-290.091 136.752-494.009z"></path>
</svg>
