<!-- Generated by IcoMoon.io -->
<svg version="1.1" xmlns="http://www.w3.org/2000/svg" width="1024" height="1024" viewBox="0 0 1024 1024">
<title></title>
<g id="icomoon-ignore">
</g>
<path fill="#415167" d="M478.525 103.079c-5.475-9.445-17.333-14.048-26.409-14.992-10.864 0.177-20.76 6.256-25.915 15.908l-106.203 198.813 55.699 63.849 51.497-83.049c10.953-17.651 39.877-17.651 50.832 0l51.5 83.049 60.475-70.949-111.476-192.63z"></path>
<path fill="#415167" d="M640 383.047l-17.629-30.519-71.048 86.299c-5.864 8.107-14.36 13.401-25.32 12.367-9.933-0.355-19.047-5.683-24.32-14.2l-49.583-80.084-49.583 80.084c-5.273 8.52-14.387 13.844-24.32 14.2-0.379 0.031-0.761 0.031-1.113 0.031-9.553 0-18.548-4.588-24.208-12.397l-64.672-77.448-284.633 529.895c-4.981 9.376-4.747 20.74 0.675 29.877 5.421 9.172 15.209 14.763 25.757 14.763h337.906c-8.615-24.504-7.107-51.859 5.799-74.933l266.29-477.934z"></path>
<path fill="#415167" d="M749.253 407.185c-10.653-19.047-41.855-19.047-52.511 0l-62.744 112.062 88.999 97.72 89.003-97.72-62.747-112.062z"></path>
<path fill="#415167" d="M1020.129 890.819l-178.36-316.241-96.713 108.39c-5.711 6.885-14.148 10.875-23.053 10.875s-17.343-3.991-23.057-10.875l-96.709-108.39-176.364 316.245c-5.243 9.367-5.155 20.832 0.236 30.112 5.389 9.277 15.231 14.977 25.893 14.977h541.995c10.663 0 20.507-5.7 25.897-14.981s5.479-20.743 0.236-30.112z"></path>
</svg>
