<svg id="e5vFQmK8VsO1" xmlns="http://www.w3.org/2000/svg" xmlns:xlink="http://www.w3.org/1999/xlink" viewBox="0 0 1011 1024" shape-rendering="geometricPrecision" text-rendering="geometricPrecision"><style><![CDATA[#e5vFQmK8VsO5_tr {animation: e5vFQmK8VsO5_tr__tr 5000ms linear infinite normal forwards}@keyframes e5vFQmK8VsO5_tr__tr { 0% {transform: translate(506.492234px,774.410673px) rotate(0deg)} 20% {transform: translate(506.492234px,774.410673px) rotate(0deg)} 38% {transform: translate(506.492234px,774.410673px) rotate(16.80001deg)} 58% {transform: translate(506.492234px,774.410673px) rotate(-0.685082deg)} 78% {transform: translate(506.492234px,774.410673px) rotate(-15.842748deg)} 98% {transform: translate(506.492234px,774.410673px) rotate(-0.199669deg)} 100% {transform: translate(506.492234px,774.410673px) rotate(-0.199669deg)}} #e5vFQmK8VsO5_ts {animation: e5vFQmK8VsO5_ts__ts 5000ms linear infinite normal forwards}@keyframes e5vFQmK8VsO5_ts__ts { 0% {transform: scale(0.929423,0.780047)} 20% {transform: scale(1.022096,0.892595)} 100% {transform: scale(1.022096,0.892595)}}]]></style><path id="e5vFQmK8VsO2" d="M888.57,596.022C870.153,634.432,830.779,661.041,785.063,661.041L785.063,596.022L227.958,596.022L227.958,661.041C182.226,661.041,142.869,634.432,124.451,596.022L64.103,596.022L64.103,953.623L948.918,953.623L948.918,596.022L888.57,596.022Z" fill="rgb(199,161,122)" stroke="none" stroke-width="1"/><path id="e5vFQmK8VsO3" d="M913.165,528.233L962.085,528.233C989.056,528.233,1011.005,550.093,1011.005,576.956L1011.005,966.746C1011.005,993.607,989.057,1015.467,962.085,1015.467L48.915,1015.467C21.944,1015.467,-0.005,993.607,-0.005,966.746L-0.005,576.971C-0.005,550.11,21.944,528.25,48.915,528.25L97.835,528.25L97.835,512.009C97.835,459.146,130.921,411.69,179.369,391.991L179.369,339.681C130.923,319.98,97.835,272.526,97.835,219.663L97.835,203.422C43.877,203.422,-0.005,159.718,-0.005,105.978C-0.005,52.238,43.876,8.534,97.835,8.534L913.166,8.534C967.124,8.534,1011.006,52.238,1011.006,105.978C1011.006,159.718,967.124,203.422,913.166,203.422L913.166,219.663C913.166,272.526,880.081,319.997,831.633,339.681L831.633,391.974C880.079,411.675,913.166,459.146,913.166,511.992L913.166,528.233ZM799.019,640.57C845.232,632.807,880.552,592.676,880.552,544.474L880.552,511.993C880.552,476.979,861.148,445.164,831.634,427.981L831.634,447.032C831.634,453.528,830.297,459.715,827.964,465.401C840.39,477.403,847.94,494.033,847.94,511.995L847.94,544.476C847.94,574.699,827.116,600.166,799.02,607.392L799.02,640.573ZM260.901,203.421L195.675,203.421L195.675,219.662C195.675,223.446,196.49,227.117,197.763,230.608C206.161,223.868,216.695,219.662,228.289,219.662C239.883,219.662,250.417,223.868,258.814,230.608C260.086,227.117,260.902,223.446,260.902,219.662L260.902,203.421ZM211.98,268.383L211.98,447.03C211.98,455.978,219.302,463.271,228.288,463.271C237.272,463.271,244.594,455.979,244.594,447.03L244.594,268.383C244.594,259.435,237.272,252.142,228.288,252.142C219.304,252.142,211.98,259.434,211.98,268.383ZM276.636,262.715C276.697,263.261,276.772,263.804,276.845,264.346L276.846,264.35C277.026,265.681,277.207,267.011,277.207,268.383L277.207,303.674C306.723,286.491,326.127,254.676,326.127,219.662L326.127,203.421L293.514,203.421L293.514,219.662C293.514,235.674,287.253,250.875,276.636,262.716ZM205.116,489.677C199.377,495.605,195.674,503.384,195.674,511.991L195.674,528.232L260.9,528.232L260.9,511.991C260.9,503.4,257.199,495.605,251.458,489.677C244.528,493.428,236.717,495.75,228.288,495.75C219.857,495.75,212.046,493.428,205.116,489.677ZM273.538,465.398C285.964,477.384,293.514,494.03,293.514,511.992L293.514,528.233L326.127,528.233L326.127,511.992C326.127,476.994,306.723,445.178,277.207,427.98L277.207,447.031C277.207,453.544,275.871,459.731,273.538,465.4ZM277.206,339.68L277.206,391.973C325.654,411.674,358.74,459.128,358.74,512.008L358.74,528.249L652.259,528.249L652.259,512.008C652.259,459.145,685.346,411.674,733.793,391.99L733.793,339.68C685.347,319.979,652.259,272.508,652.259,219.662L652.259,203.421L358.74,203.421L358.74,219.662C358.74,272.525,325.655,319.979,277.206,339.68ZM766.405,447.029C766.405,455.977,773.727,463.27,782.713,463.27C791.697,463.27,799.019,455.978,799.019,447.029L799.019,268.382C799.019,259.434,791.697,252.141,782.713,252.141C773.729,252.141,766.405,259.433,766.405,268.382L766.405,447.029ZM813.239,230.607C814.509,227.116,815.326,223.445,815.326,219.661L815.326,203.42L750.1,203.42L750.1,219.661C750.1,223.445,750.915,227.116,752.188,230.607C760.586,223.867,771.12,219.661,782.714,219.661C794.308,219.661,804.842,223.867,813.24,230.607ZM734.364,262.715C723.749,250.875,717.487,235.691,717.487,219.661L717.487,203.42L684.873,203.42L684.873,219.661C684.873,254.659,704.277,286.475,733.793,303.673L733.793,268.382C733.793,266.925,733.984,265.532,734.177,264.133C734.241,263.661,734.306,263.189,734.364,262.713ZM733.793,427.98C704.277,445.163,684.873,476.978,684.873,511.992L684.873,528.233L717.487,528.233L717.487,511.992C717.487,494.03,725.036,477.4,737.462,465.398C735.131,459.714,733.793,453.526,733.793,447.029L733.793,427.978ZM750.099,511.992L750.099,528.233L815.325,528.233L815.325,511.992C815.325,503.401,811.624,495.606,805.885,489.678C798.954,493.429,791.143,495.751,782.713,495.751C774.283,495.751,766.471,493.429,759.541,489.678C753.802,495.606,750.099,503.385,750.099,511.992ZM831.633,303.674C861.147,286.491,880.551,254.676,880.551,219.662L880.551,187.181C880.551,138.979,845.232,98.849,799.018,91.086L799.018,124.266C827.114,131.509,847.938,156.974,847.938,187.182L847.938,219.663C847.938,235.692,841.677,250.876,831.06,262.733C831.12,263.264,831.193,263.795,831.265,264.326L831.266,264.335L831.267,264.34C831.447,265.671,831.632,267.007,831.632,268.384L831.632,303.675ZM32.608,105.977C32.608,141.804,61.862,170.94,97.834,170.94L98.959,170.94C107.031,106.952,161.887,57.257,228.287,57.257L244.593,57.257L244.593,154.7L228.287,154.7C216.269,154.7,205.865,161.278,200.207,170.941L810.792,170.941C805.135,161.278,794.731,154.7,782.713,154.7L766.405,154.7L766.405,57.257L782.713,57.257C849.112,57.257,903.968,106.954,912.041,170.94L913.166,170.94C949.139,170.94,978.392,141.805,978.392,105.977C978.392,70.149,949.138,41.014,913.166,41.014L97.835,41.014C61.862,41.014,32.609,70.149,32.609,105.977ZM130.448,203.421L130.448,219.662C130.448,254.676,149.852,286.491,179.368,303.674L179.368,268.383C179.368,266.94,179.557,265.552,179.75,264.157C179.815,263.682,179.881,263.208,179.938,262.731C169.322,250.874,163.06,235.674,163.06,219.661L163.06,187.18C163.06,156.957,183.884,131.49,211.98,124.264L211.98,91.084C165.767,98.847,130.447,138.977,130.447,187.179L130.447,203.42ZM130.448,511.992L130.448,544.473C130.448,592.675,165.767,632.806,211.981,640.569L211.981,607.388C183.885,600.146,163.061,574.68,163.061,544.472L163.061,511.991C163.061,494.029,170.612,477.399,183.037,465.397C180.705,459.713,179.368,453.541,179.368,447.028L179.368,427.977C149.852,445.16,130.448,476.975,130.448,511.989ZM962.085,982.969C971.07,982.969,978.391,975.677,978.391,966.728L978.391,576.955C978.391,568.006,971.07,560.714,962.085,560.714L912.041,560.714C903.968,624.702,849.113,674.397,782.713,674.397L766.405,674.397L766.405,576.954L782.713,576.954C794.731,576.954,805.135,570.376,810.792,560.713L200.207,560.713C205.866,570.376,216.269,576.954,228.287,576.954L244.593,576.954L244.593,674.397L228.287,674.397C161.886,674.397,107.031,624.701,98.959,560.714L48.914,560.714C39.929,560.714,32.607,568.005,32.607,576.955L32.607,966.728C32.607,975.676,39.928,982.969,48.914,982.969L962.084,982.969Z" fill="rgb(35,44,56)" stroke="none" stroke-width="1"/><path id="e5vFQmK8VsO4" d="M531.9,650.768L531.9,650.819L531.951,650.819L531.9,650.768Z" fill="rgb(35,44,56)" stroke="none" stroke-width="1"/><g id="e5vFQmK8VsO5_tr" transform="translate(506.492234,774.410673) rotate(0)"><g id="e5vFQmK8VsO5_ts" transform="scale(0.929423,0.780047)"><path id="e5vFQmK8VsO5" d="M534.609,653.626C535.21,654.286,535.81,654.945,536.432,655.592C602.524,617.199,680.893,620.918,727.824,666.376C752.723,690.526,766.437,724.176,766.437,761.124C766.437,808.157,744.716,856.195,706.852,892.899C667.815,930.756,617.998,950.293,571.491,950.293C534.802,950.293,500.166,938.129,474.451,913.216L474.516,913.134C468.352,913.865,462.155,914.352,455.844,914.352C409.339,914.352,359.537,894.814,320.483,856.958C282.619,820.238,260.899,772.198,260.899,725.165C260.899,688.217,274.614,654.567,299.512,630.433C357.791,573.915,462.041,583.043,531.898,650.766C532.848,651.693,533.728,652.658,534.608,653.624ZM509.153,674.041C476.311,642.193,434.73,625.611,396.622,625.611C374.184,625.611,353.132,631.605,335.554,643.345L540.431,841.967C552.466,825.434,558.857,805.231,558.857,782.543C558.857,744.216,540.74,704.67,509.154,674.04ZM343.217,833.703C311.615,803.073,293.514,763.527,293.514,725.199C293.514,702.511,299.89,682.308,311.94,665.791L516.898,864.495C469.528,896.229,395.414,884.308,343.217,833.704ZM514.012,902.79C561.482,931.569,633.198,918.933,684.074,869.626C715.676,838.996,733.793,799.451,733.777,761.123C733.777,738.435,727.384,718.215,715.351,701.699L690.582,725.719L667.817,702.448L691.706,679.289C655.897,655.447,604.139,656.194,557.797,681.188C578.262,710.47,589.905,743.731,591.144,776.78L648.363,721.302L671.128,744.592L583.236,829.807C576.729,847.802,566.571,864.009,552.873,877.295C541.491,888.322,528.299,896.718,514.014,902.794Z" transform="translate(-513.668,-771.895401)" fill="rgb(35,44,56)" stroke="none" stroke-width="1"/></g></g><path id="e5vFQmK8VsO6" d="M309.82,73.496L635.952,73.496L635.952,105.977L309.82,105.977L309.82,73.496Z" fill="rgb(35,44,56)" stroke="none" stroke-width="1"/><path id="e5vFQmK8VsO7" d="M668.567,73.496L701.181,73.496L701.181,105.977L668.567,105.977L668.567,73.496Z" fill="rgb(35,44,56)" stroke="none" stroke-width="1"/></svg>