<svg id="e1oV6TZjpr81"
  xmlns="http://www.w3.org/2000/svg"
  xmlns:xlink="http://www.w3.org/1999/xlink" viewBox="0 0 999 1024" shape-rendering="geometricPrecision" text-rendering="geometricPrecision">
  <style><![CDATA[#e1oV6TZjpr85_to {animation: e1oV6TZjpr85_to__to 3000ms linear infinite normal forwards}@keyframes e1oV6TZjpr85_to__to { 0% {transform: translate(563.9535px,172.2465px)} 50% {transform: translate(612.293px,172.2465px)} 100% {transform: translate(563.9535px,172.2465px)}} #e1oV6TZjpr86_to {animation: e1oV6TZjpr86_to__to 3000ms linear infinite normal forwards}@keyframes e1oV6TZjpr86_to__to { 0% {transform: translate(467.274994px,172.246498px)} 50% {transform: translate(515.613987px,172.246498px)} 100% {transform: translate(483.388494px,172.246498px)}}]]></style>
  <path id="e1oV6TZjpr82" d="M274.3,418.492C274.3,371.551,310.315,333.485,354.729,333.485L16.928,333.485L16.928,469.496L290.546,469.224C280.476,455.028,274.299,437.601,274.299,418.492Z" fill="rgb(199,161,122)" stroke="none" stroke-width="1"/>
  <path id="e1oV6TZjpr83" d="M628.187,316.484L982.074,316.484L982.074,486.499L628.187,486.499L628.187,316.484Z" fill="rgb(199,161,122)" stroke="none" stroke-width="1"/>
  <path id="e1oV6TZjpr84" d="M703.589,123.709C660.697,55.774,585.351,10.458,499.501,10.458C413.651,10.458,338.289,55.775,295.413,123.709L-0.005,123.709L-0.005,1013.544L999.004,1013.544L999.004,123.709L703.586,123.709ZM499.501,42.815C614.999,42.815,708.971,137.171,708.971,253.139L708.971,285.497L966.779,285.497L966.779,544.358L590.444,544.358C623.379,517.647,644.519,476.827,644.519,431.107L644.519,285.497L354.484,285.497L354.484,317.855C301.166,317.855,257.806,361.391,257.806,414.928C257.806,468.465,301.165,512.002,354.484,512.002L379.009,512.002C387.179,524.233,397.169,535.122,408.56,544.359L32.224,544.359L32.224,285.498L290.033,285.498L290.033,253.14C290.033,137.172,384.005,42.816,499.503,42.816ZM322.259,576.716L676.747,576.716L676.747,641.432L322.259,641.432L322.259,576.716ZM386.71,431.106L386.71,317.855L612.294,317.855L612.294,431.106C612.294,493.557,561.698,544.357,499.502,544.357C437.306,544.357,386.71,493.556,386.71,431.106ZM354.484,479.643C318.938,479.643,290.032,450.618,290.032,414.927C290.032,379.238,318.939,350.212,354.484,350.212L354.484,431.106C354.484,448.143,357.561,464.434,362.943,479.643L354.484,479.643ZM32.223,220.782L193.354,220.782L193.354,188.424L32.223,188.424L32.223,156.066L278.124,156.066C273.58,166.486,269.857,177.309,266.796,188.424L225.579,188.424L225.579,220.782L260.205,220.782C258.788,231.395,257.805,242.137,257.805,253.139L32.221,253.139L32.221,220.782ZM32.223,576.716L290.032,576.716L290.032,981.186L32.223,981.186L32.223,576.716ZM322.259,673.79L483.39,673.79L483.39,981.186L322.259,981.186L322.259,673.79ZM515.614,673.79L676.745,673.79L676.745,981.186L515.614,981.186L515.614,673.79ZM966.78,981.186L708.971,981.186L708.971,576.716L966.78,576.716L966.78,981.186ZM738.796,220.782L773.422,220.782L773.422,188.424L732.205,188.424C729.128,177.309,725.422,166.485,720.877,156.066L966.779,156.066L966.779,188.424L805.647,188.424L805.647,220.782L966.779,220.782L966.779,253.139L741.195,253.139C741.195,242.137,740.212,231.395,738.795,220.782Z" fill="rgb(35,44,56)" stroke="none" stroke-width="1"/>
  <g id="e1oV6TZjpr85_to" transform="translate(563.9535,172.2465)">
    <path id="e1oV6TZjpr85" d="M515.614,253.14L547.841,253.14L547.841,224.599C547.841,208.452,556.784,193.94,571.157,186.726C596.535,173.976,612.293,148.382,612.293,119.907L612.293,91.351L580.066,91.351L580.066,119.891C580.066,136.038,571.123,150.55,556.75,157.766C531.372,170.515,515.614,196.109,515.614,224.583L515.614,253.14Z" transform="translate(-563.9535,-172.2455)" fill="rgb(35,44,56)" stroke="none" stroke-width="1"/>
  </g>
  <g id="e1oV6TZjpr86_to" transform="translate(467.274994,172.246498)">
    <path id="e1oV6TZjpr86" d="M451.162,224.6C451.162,208.453,460.106,193.941,474.478,186.727C499.857,173.977,515.614,148.383,515.614,119.908L515.614,91.352L483.388,91.352L483.388,119.892C483.388,136.039,474.444,150.551,460.072,157.767C434.693,170.516,418.936,196.11,418.936,224.584L418.936,253.141L451.162,253.141L451.162,224.6Z" transform="translate(-467.275007,-172.2465)" fill="rgb(35,44,56)" stroke="none" stroke-width="1"/>
  </g>
  <path id="e1oV6TZjpr87" d="M418.936,770.862L451.163,770.862L451.163,835.577L418.936,835.577L418.936,770.862Z" fill="rgb(35,44,56)" stroke="none" stroke-width="1"/>
  <path id="e1oV6TZjpr88" d="M547.84,770.862L580.067,770.862L580.067,835.577L547.84,835.577L547.84,770.862Z" fill="rgb(35,44,56)" stroke="none" stroke-width="1"/>
</svg>