<svg id="epxQGo8m2Mk1" xmlns="http://www.w3.org/2000/svg" xmlns:xlink="http://www.w3.org/1999/xlink" viewBox="0 0 937 1024" shape-rendering="geometricPrecision" text-rendering="geometricPrecision"><style><![CDATA[#epxQGo8m2Mk2_ts {animation: epxQGo8m2Mk2_ts__ts 3000ms linear infinite normal forwards}@keyframes epxQGo8m2Mk2_ts__ts { 0% {transform: translate(367.336px,420.660595px) scale(0.739643,0.154474)} 30% {transform: translate(367.336px,420.660595px) scale(0.8961,0.331924)} 66.666667% {transform: translate(367.336px,420.660595px) scale(1.000402,0.633625)} 100% {transform: translate(367.336px,420.660595px) scale(1.065591,1.041782)}}]]></style><g id="epxQGo8m2Mk2_ts" transform="translate(367.336,420.660595) scale(0.739643,0.154474)"><path id="epxQGo8m2Mk2" d="M110.667,235.434L110.667,244.91C110.667,317.353,148.27,384.83,210.479,424.007L524.193,424.007C586.402,384.831,624.005,317.353,624.005,244.91L624.005,235.434L110.669,235.434Z" transform="translate(-367.336,-424.007)" fill="rgb(199,161,122)" stroke="none" stroke-width="1"/></g><path id="epxQGo8m2Mk3" d="M840.072,9.147L96.927,9.147C43.469,9.147,-0.005,52.799,-0.005,106.474C-0.005,160.149,43.469,203.802,96.927,203.802L96.927,246.026C96.927,311.706,123.681,373.087,170.078,417.177C146.571,424.056,129.237,445.646,129.237,471.454C129.237,495.721,144.568,516.339,165.958,524.433C163.18,530.548,161.549,537.296,161.549,544.449L161.549,548.992L119.835,562.942C86.797,574.005,64.616,604.923,64.616,639.88L64.616,741.003C64.616,775.96,86.814,806.895,119.851,817.957L165.49,833.205C170.805,853.19,181.338,871.032,195.652,885.081L64.617,885.081C28.978,885.081,-0.004,914.182,-0.004,949.967C-0.004,985.75,28.978,1014.852,64.617,1014.852L872.385,1014.852L872.385,198.127C909.978,184.729,937.006,148.766,937.006,106.476C937.006,52.8,893.532,9.149,840.073,9.149ZM484.655,57.811C484.655,66.749,477.402,74.032,468.5,74.032L306.946,74.032C298.044,74.032,290.791,66.749,290.791,57.811C290.791,48.873,298.044,41.59,306.946,41.59L468.5,41.59C477.402,41.59,484.655,48.873,484.655,57.811ZM32.306,106.474C32.306,70.69,61.288,41.589,96.927,41.589L261.452,41.589C259.643,46.682,258.479,52.1,258.479,57.81C258.479,84.64,280.225,106.474,306.945,106.474L468.499,106.474C495.22,106.474,516.965,84.64,516.965,57.81C516.965,52.1,515.802,46.682,513.992,41.589L678.517,41.589C714.155,41.589,743.138,70.69,743.138,106.474C743.138,142.258,714.155,171.359,678.517,171.359L96.924,171.359C61.285,171.359,32.303,142.258,32.303,106.474ZM678.52,430.9L678.52,366.015L743.141,366.015L743.141,430.9L678.52,430.9ZM678.52,560.67L743.141,560.67L743.141,625.556L678.52,625.556L678.52,560.67ZM678.52,528.228L678.52,463.342L743.141,463.342L743.141,528.228L678.52,528.228ZM646.208,333.573L646.208,658L743.141,658L743.141,885.097L547.484,885.097C568.486,864.463,581.589,835.752,581.589,803.991L581.589,544.449C581.589,537.296,579.957,530.548,577.179,524.433C598.569,516.322,613.9,495.721,613.9,471.454C613.9,445.662,596.566,424.072,573.06,417.177C619.458,373.071,646.21,311.69,646.21,246.026L646.21,203.802L743.143,203.802L743.143,333.572L646.21,333.572ZM613.897,246.027C613.897,314.14,580.391,376.77,524.284,414.679L290.791,414.679L290.791,366.016C290.791,321.294,254.555,284.909,210.013,284.909L133.324,284.909C130.884,272.208,129.236,259.279,129.236,246.027L129.236,203.803L613.897,203.803L613.897,246.027ZM142.195,317.351L210.015,317.351C236.736,317.351,258.481,339.185,258.481,366.016L258.481,414.679L218.852,414.679C183.197,390.574,156.75,356.526,142.195,317.352ZM557.354,447.121C570.715,447.121,581.587,458.037,581.587,471.453C581.587,484.867,570.715,495.785,557.354,495.785L185.781,495.785C172.42,495.785,161.548,484.868,161.548,471.453C161.548,458.038,172.42,447.121,185.781,447.121L557.354,447.121ZM96.927,741.003L96.927,639.88C96.927,618.905,110.239,600.348,130.061,593.697L161.549,583.17L161.549,797.73L130.061,787.202C110.238,780.535,96.927,761.978,96.927,741.004ZM193.858,544.448C193.858,535.495,201.112,528.228,210.013,528.228L533.121,528.228C542.023,528.228,549.276,535.495,549.276,544.448L549.276,803.99C549.276,848.711,513.04,885.096,468.5,885.096L274.635,885.096C230.095,885.096,193.859,848.711,193.859,803.99L193.859,544.448ZM840.072,982.424L64.615,982.424C46.796,982.424,32.304,967.874,32.304,949.983C32.304,932.09,46.796,917.541,64.615,917.541L775.45,917.541L775.45,203.804L840.071,203.804L840.071,982.425ZM750.571,171.359C765.983,154.116,775.451,131.422,775.451,106.474C775.451,81.526,765.984,58.832,750.571,41.589L840.072,41.589C875.712,41.589,904.693,70.69,904.693,106.474C904.693,142.258,875.711,171.359,840.072,171.359L750.571,171.359Z" fill="rgb(21,29,40)" stroke="none" stroke-width="1"/><path id="epxQGo8m2Mk4" d="M484.655,560.67L516.966,560.67L516.966,593.112L484.655,593.112L484.655,560.67Z" fill="rgb(51,51,51)" stroke="none" stroke-width="1"/><path id="epxQGo8m2Mk5" d="M226.17,560.67L452.345,560.67L452.345,593.112L226.17,593.112L226.17,560.67Z" fill="rgb(51,51,51)" stroke="none" stroke-width="1"/></svg>