<svg id="eYQU3wkPBz61" xmlns="http://www.w3.org/2000/svg" xmlns:xlink="http://www.w3.org/1999/xlink" viewBox="0 0 1012 1024" shape-rendering="geometricPrecision" text-rendering="geometricPrecision"><style><![CDATA[#eYQU3wkPBz65_tr {animation: eYQU3wkPBz65_tr__tr 5000ms linear infinite normal forwards}@keyframes eYQU3wkPBz65_tr__tr { 0% {transform: translate(734.530548px,528.381348px) rotate(0deg)} 24% {transform: translate(734.530548px,528.381348px) rotate(51.524102deg)} 48% {transform: translate(734.530548px,528.381348px) rotate(89.676545deg)} 74% {transform: translate(734.530548px,528.381348px) rotate(137.945742deg)} 100% {transform: translate(734.530548px,528.381348px) rotate(179.319461deg)}} #eYQU3wkPBz66_tr {animation: eYQU3wkPBz66_tr__tr 5000ms linear infinite normal forwards}@keyframes eYQU3wkPBz66_tr__tr { 0% {transform: translate(277.474991px,774.227325px) rotate(0deg)} 24% {transform: translate(277.474991px,774.227325px) rotate(33.580501deg)} 47.6% {transform: translate(277.474991px,774.227325px) rotate(88.622339deg)} 72.6% {transform: translate(277.474991px,774.227325px) rotate(131.025495deg)} 100% {transform: translate(277.474991px,774.227325px) rotate(180.289883deg)}}]]></style><path id="eYQU3wkPBz62" d="M25.297,624.905L546.737,624.905L546.737,956.561L25.297,956.561L25.297,624.905Z" fill="rgb(199,161,122)" stroke="none" stroke-width="1"/><path id="eYQU3wkPBz63" d="M546.739,724.401L986.704,724.401L986.704,359.58L497.854,359.58L497.854,459.077L546.739,459.077L546.739,724.401Z" fill="rgb(199,161,122)" stroke="none" stroke-width="1"/><path id="eYQU3wkPBz64" d="M1012.004,118.657C1012.004,133.128,1005.622,146.027,995.681,155.041L995.681,868.96C1005.621,877.975,1012.004,890.872,1012.004,905.344L1012.004,970.902C1012.004,998.009,990.033,1020.069,963.036,1020.069L489.679,1020.069L489.679,1018.414C484.406,1019.496,478.938,1020.069,473.356,1020.069L81.61,1020.069C36.609,1020.069,-0.004,983.308,-0.004,938.123L-0.004,479.222C-0.004,452.115,21.967,430.054,48.964,430.054L473.354,430.054L473.354,155.041C463.413,146.028,457.03,133.129,457.03,118.657L457.03,53.1C457.03,25.993,479.001,3.932,505.998,3.932L963.032,3.932C990.029,3.932,1012,25.992,1012,53.1L1012,118.657ZM979.359,53.1C979.359,44.07,972.03,36.711,963.035,36.711L897.744,36.711L897.744,135.047L963.035,135.047C972.029,135.047,979.359,127.688,979.359,118.658L979.359,53.101ZM603.936,36.711L603.936,135.047L669.227,135.047L669.227,36.711L603.936,36.711ZM701.873,36.711L701.873,135.047L767.164,135.047L767.164,36.711L701.873,36.711ZM865.099,36.711L799.808,36.711L799.808,135.047L865.099,135.047L865.099,36.711ZM489.677,53.1L489.677,118.657C489.677,127.688,497.005,135.046,506,135.046L571.291,135.046L571.291,36.71L506,36.71C497.006,36.71,489.677,44.069,489.677,53.099ZM32.642,938.123C32.642,965.23,54.613,987.29,81.61,987.29L473.356,987.29C500.353,987.29,522.323,965.231,522.323,938.123L522.323,561.169L489.679,561.169L489.679,528.392L522.323,528.392L522.323,479.224C522.323,470.193,514.995,462.834,506,462.834L48.965,462.834C39.971,462.834,32.642,470.193,32.642,479.224L32.642,528.392L457.031,528.392L457.031,561.169L32.642,561.169L32.642,938.123ZM979.359,970.902L979.359,905.344C979.359,896.296,972.03,888.954,963.035,888.954L554.969,888.954L554.969,938.122C554.969,956.641,548.587,973.555,538.222,987.289L963.036,987.289C972.03,987.289,979.36,979.947,979.36,970.9ZM554.968,856.176L963.034,856.176L963.034,167.825L506,167.825L506,430.054C532.997,430.054,554.968,452.115,554.968,479.222L554.968,856.175Z" fill="rgb(21,29,40)" stroke="none" stroke-width="1"/><g id="eYQU3wkPBz65_tr" transform="translate(734.530548,528.381348) rotate(0)"><path id="eYQU3wkPBz65" d="M702.329,659.292C740.034,659.292,781.608,641.936,814.612,608.813C871.383,551.811,881.634,469.373,837.464,425.023C793.294,380.673,711.191,390.965,654.437,447.968C597.682,504.969,587.432,587.408,631.585,631.741C650.063,650.31,675.183,659.292,702.328,659.292ZM791.532,585.637C753.043,624.267,701.268,637.017,667.855,618.498L824.276,461.44C842.688,495.005,830.022,546.974,791.533,585.637ZM766.51,429.889C737.505,429.889,704.304,444.23,677.502,471.141C639.013,509.804,626.346,561.774,644.759,595.323L800.984,438.46C790.848,432.855,779.144,429.889,766.51,429.889Z" transform="translate(-734.530548,-528.381348)" fill="rgb(21,29,40)" stroke="none" stroke-width="1"/></g><g id="eYQU3wkPBz66_tr" transform="translate(277.474991,774.227325) rotate(0)"><path id="eYQU3wkPBz66" d="M197.388,693.807C140.617,750.809,130.366,833.247,174.536,877.597C193.014,896.166,218.134,905.148,245.279,905.148C282.984,905.148,324.558,887.792,357.562,854.669C414.333,797.668,424.584,715.229,380.414,670.879C336.261,626.497,254.157,636.804,197.387,693.807ZM220.468,716.982C247.27,690.087,280.486,675.746,309.476,675.746C322.11,675.746,333.814,678.712,343.95,684.317L187.725,841.178C169.313,807.613,181.979,755.644,220.468,716.981ZM210.821,864.337C244.234,882.856,296.009,870.107,334.498,831.477C372.987,792.814,385.654,740.843,367.241,707.279L210.82,864.337Z" transform="translate(-277.474991,-774.227325)" fill="rgb(21,29,40)" stroke="none" stroke-width="1"/></g></svg>